# xmcd
#
# Track frame offsets: 
#        150
#        13372
#        26722
#        41305
#        55215
#        60372
#        65112
#        70110
#        84915
#        92240
#        100207
#        114592
#        128295
#        137957
#        143655
#        153557
#        165285
#
# Disc length: 2346 seconds
#
# Revision: 0
# Processed by: cddbd v1.5.2PL0 Copyright (c) Steve Scherf et al.
# Submitted via: ExactAudioCopy v0.99pb5
#
DISCID=df092811
DTITLE=Leadbelly - Huddie Ledbetter
DYEAR=1973
DGENRE=Blues
TTITLE0=Fannin Street
TTITLE1=Frankie And Albert (Part 1)
TTITLE2=Frankie And Albert (Part 2)
TTITLE3=De Kalb Blues
TTITLE4=Looky, Looky, Yonder
TTITLE5=Black Betty
TTITLE6=Yellow Women's Door Bells
TTITLE7=The Bourgeois Blues
TTITLE8=Poor Howard
TTITLE9=Green Corn
TTITLE10=The Boll Weevil
TTITLE11=The Gallis Poll
TTITLE12=Ain;t Going Down To The Well No Mo'
TTITLE13=Go Down, Old Hannah
TTITLE14=How Long Blues
TTITLE15=Goodnight, Irene
TTITLE16=Good Morning Blues
EXTD=
EXTT0=
EXTT1=
EXTT2=
EXTT3=
EXTT4=
EXTT5=
EXTT6=
EXTT7=
EXTT8=
EXTT9=
EXTT10=
EXTT11=
EXTT12=
EXTT13=
EXTT14=
EXTT15=
EXTT16=
PLAYORDER=
